<?xml version="1.0" standalone="no"?><!DOCTYPE svg PUBLIC "-//W3C//DTD SVG 1.1//EN" "http://www.w3.org/Graphics/SVG/1.1/DTD/svg11.dtd"><svg t="1648362751454" class="icon" viewBox="0 0 1024 1024" version="1.1" xmlns="http://www.w3.org/2000/svg" p-id="3203" data-spm-anchor-id="a313x.7781069.0.i0" width="128" height="128" xmlns:xlink="http://www.w3.org/1999/xlink"><defs><style type="text/css">@font-face { font-family: feedback-iconfont; src: url("//at.alicdn.com/t/font_1031158_u69w8yhxdu.woff2?t=1630033759944") format("woff2"), url("//at.alicdn.com/t/font_1031158_u69w8yhxdu.woff?t=1630033759944") format("woff"), url("//at.alicdn.com/t/font_1031158_u69w8yhxdu.ttf?t=1630033759944") format("truetype"); }
</style></defs><path d="M173.7 312.5c-11 0-20 9-20 20v15.1c0 11 9 20 20 20H852c11 0 20 9 20 20v369.1c0 11-9 20-20 20H323.6c-11 0-20 9-20 20v15.1c0 11 9 20 20 20H907c11 0 20-9 20-20V332.5c0-11-9-20-20-20H173.7z" fill="#1296db" p-id="3204"></path><path d="M341.6 535c7.8-7.8 7.8-20.5 0-28.3L189 354.2c-7.8-7.8-7.8-20.5 0-28.3l152.6-152.6c7.8-7.8 7.8-20.5 0-28.3L331 134.4c-7.8-7.8-20.5-7.8-28.3 0L150.1 287c-7.8 7.8-14.1 14.1-14.2 14.1 0 0-6.4 6.4-14.2 14.1L111 325.9c-7.8 7.8-7.8 20.5 0 28.3l191.5 191.5c7.8 7.8 20.5 7.8 28.3 0l10.8-10.7z" fill="#1296db" p-id="3205"></path></svg>